<?xml version="1.0" encoding="utf-8"?>
<!-- Generator: Adobe Illustrator 27.0.1, SVG Export Plug-In . SVG Version: 6.00 Build 0)  -->
<svg version="1.1" id="Layer_1" xmlns="http://www.w3.org/2000/svg" xmlns:xlink="http://www.w3.org/1999/xlink" x="0px" y="0px"
	 viewBox="0 0 1200 1200" style="enable-background:new 0 0 1200 1200;" xml:space="preserve">
<style type="text/css">
	.st0{fill-rule:evenodd;clip-rule:evenodd;fill:#FFFFFF;}
	.st1{fill-rule:evenodd;clip-rule:evenodd;fill:#F44336;}
</style>
<g>
	<polygon class="st0" points="910.9,612.5 847.4,832.2 643.7,966.5 414.5,978.7 211.1,858 133.7,692.5 45.6,634.2 97.1,531.1 
		74.8,426.7 212.4,285.6 363,514.8 558.3,489.1 773.9,213.7 896,175.8 1002.9,220.5 1019.8,352.1 	"/>
	<polygon class="st1" points="996.4,453.8 1062.8,562.3 1029.6,624.7 982.8,578.5 	"/>
	<polygon class="st1" points="733.3,262.6 632.9,160.8 647.8,79.5 723.8,79.5 742.7,118.8 847.4,30.6 891.9,61.2 891.9,103.9 
		1019.8,94.4 1036.6,156.8 981.5,227.7 883.8,188 802.4,198.8 	"/>
	<g>
		<path d="M32.4,665.5c18.5,26.4,51.4,42.2,85.7,50.1c27.7,105.5,93.6,207,195.2,255.8c30.3,14.5,62,25.1,96.3,31.6
			c-1.3,27.7,7.9,55.4,27.7,77.8c-2.6,2.6-5.3,6.6-9.2,9.2c-14.5,14.5-30.3,27.7-42.2,44.8c-9.2,14.5-2.6,34.3,11.9,43.5
			c15.8,9.2,33,2.6,43.5-11.9c10.6-14.5,18.5-31.6,27.7-46.2c21.1,26.4,42.2,51.4,71.2,65.9c31.6,15.8,54.1-26.4,26.4-46.2
			c-30.3-22.4-54.1-48.8-79.1-77.8c-10.6-11.9-22.4-22.4-30.3-36.9c-2.6-5.3-5.3-10.6-6.6-17.1c34.3,4,69.9,4,104.2,0
			c5.3,30.3,40.9,62,62,76.5c1.3,0,1.3,1.3,2.6,1.3c-1.3,6.6-2.6,11.9-4,17.1c-4,21.1-15.8,54.1,2.6,69.9c7.9,6.6,19.8,10.6,29,4
			c21.1-14.5,15.8-39.6,17.1-62c29,15.8,63.3,26.4,89.7,13.2c14.5-6.6,17.1-29,5.3-39.6c-13.2-11.9-27.7-13.2-43.5-18.5
			c-18.5-5.3-35.6-14.5-51.4-23.7c-21.1-13.2-40.9-27.7-59.3-44.8c25.1-5.3,50.1-11.9,72.5-19.8c91-34.3,168.8-94.9,217.6-179.3
			c26.2-45.9,38-98.6,42-151.4c2.6-39.6-2.6-79.1,19.8-113.4c2.6-4,5.3-7.9,7.9-11.9c-4,60.7,15.8,131.9,77.8,108.1
			c77.8-31.6,26.4-142.4-25.1-183.3c1.3-2.6,11.9-26.4,14.5-34.3c11.9,6.6,81.8,42.2,104.2,29c5.3-2.6,6.6-7.9,5.3-14.5
			c-4-22.4-67.3-60.7-77.8-68.6c14.5-5.3,77.8-34.3,91-50.1c4-5.3,0-14.5-6.6-15.8c-18.5-5.3-89.7,11.9-106.8,17.1
			c-1.3-6.6-1.3-11.9-2.6-18.5c-5.3-35.6-58-19.8-52.7,14.5c7.9,51.4-4,96.3-33,138.5c-18.5,27.7-43.5,52.7-58,83.1
			c-6.6,14.5-9.2,29-10.6,44.8c-17.1,10.6-34.3,21.1-51.4,31.6c-5.3-35.6-14.5-76.5-40.9-91c-21.1-11.9-52.7,0-77.8,13.2
			c0-19.8-1.3-38.2-2.6-58c-1.3-15.8-13.2-25.1-29-22.4c-22.4,4-46.2,6.6-69.9,11.9c47.5-46.2,84.4-102.9,124-158.2
			c27.7-39.6,60.7-80.4,110.8-93.6c36.9-9.2,77.8-2.6,112.1,14.5c1.3,18.5,23.7,33,43.5,17.1c38.2-31.6,77.8-80.4,54.1-133.2
			c-9.2-19.8-27.7-34.3-48.8-40.9c-31.6-9.2-87,6.6-88.4,6.6c0-4-1.3-7.9-1.3-11.9c-2.6-10.6-5.3-19.8-11.9-27.7
			c-11.9-14.5-30.3-22.4-50.1-23.7c-40.9-1.3-75.2,30.3-100.2,63.3c-4-6.6-7.9-13.2-14.5-18.5c-11.9-9.2-27.7-14.5-43.5-14.5
			c-33,0-63.3,18.5-77.8,48.8C590.2,153.9,639,233,703.6,252.8c-19.8,27.7-38.2,56.7-56.7,84.4C594.2,417.6,520.3,500.7,414.8,498
			c-116-4-149-131.9-170.1-224.2c-4-19.8-26.4-25.1-43.5-17.1c-30.3,14.5-55.4,38.2-72.5,67.3c-6.6,11.9-9.2,27.7-17.1,36.9
			c-9.2,10.6-25.1,15.8-34.3,26.4c-36.9,40.9-35.6,98.9-6.6,142.4C25.8,565.3-3.2,615.4,32.4,665.5L32.4,665.5z M1002.9,546.9
			c0-17.1,1.3-33,7.9-47.5c15.8,22.4,29,47.5,25.1,73.8c-4,25.1-25.1,22.4-31.6-1.3C1002.9,564,1002.9,554.8,1002.9,546.9
			L1002.9,546.9z M656.1,140.7C653.5,117,668,84,697,95.9c14.5,6.6,21.1,29,34.3,40.9c13.2,10.6,30.3,9.2,40.9-5.3
			c10.6-15.8,52.7-81.8,80.4-68.6c15.8,6.6,10.6,43.5,26.4,56.7c19.8,15.8,42.2,4,63.3-1.3c22.4-5.3,60.7-11.9,62,23.7
			c1.3,22.4-19.8,39.6-35.6,52.7c-42.2-40.9-102.9-55.4-162.2-34.3c-38.2,13.2-67.3,38.2-92.3,67.3
			C693.1,200,660.1,178.9,656.1,140.7L656.1,140.7z M123.4,512.6c-21.1-18.5-33-46.2-21.1-72.5c9.2-19.8,29-25.1,43.5-38.2
			c11.9-10.6,15.8-25.1,22.4-39.6c5.3-11.9,13.2-22.4,22.4-30.3c18.5,75.2,47.5,150.3,117.4,191.2c67.3,40.9,151.6,34.3,218.9-1.3
			c44.8-4,88.4-14.5,133.2-21.1c0,23.7,0,47.5-2.6,71.2c-1.3,15.8,17.1,30.3,31.6,23.7c10.6-4,68.6-36.9,79.1-30.3
			c-1.3-1.3,6.6,39.6,7.9,40.9c4,17.1,6.6,34.3,9.2,52.7c2.6,15.8,23.7,22.4,35.6,14.5c18.5-11.9,36.9-23.7,55.4-35.6
			c0,9.2,0,18.5-1.3,26.4c-5.3,63.3-31.6,120-72.5,167.5C720.7,926.7,588.9,965,466.2,954.4c-72.5-6.6-139.8-27.7-195.2-75.2
			c-48.8-40.9-84.4-96.3-110.8-154.3c19.8,2.6,38.2,2.6,55.4,2.6c35.6,0,35.6-55.4,0-55.4c-38.2,0-81.8-5.3-116-23.7
			c-55.4-30.3-5.3-72.5,25.1-96.3C135.2,542.9,133.9,520.5,123.4,512.6L123.4,512.6z"/>
		<path d="M848.7,298.9c-5.3,19.8,6.6,39.6,26.4,44.8c18.5,4,38.2-5.3,43.5-23.7c7.9-26.4-14.5-44.8-23.7-46.2
			C875,268.6,853.9,280.5,848.7,298.9L848.7,298.9z"/>
		<path d="M310.6,755.2c9.2,55.4,69.9,64.6,120,62c7.9,38.2,50.1,62,91,65.9c58,4,113.4-29,142.4-77.8c22.4-36.9-39.6-71.2-56.7-33
			c-10.6,21.1-25.1,38.2-47.5,47.5c-15.8,6.6-83.1,14.5-69.9-25.1c7.9-23.7-15.8-38.2-35.6-35.6c-13.2,1.3-88.4,13.2-87-15.8
			c0-17.1,42.2-35.6,54.1-40.9c26.4-10.6,26.4-43.5,0-54.1c-7.9-2.6-14.5-4-22.4-6.6c-10.6-4-14.5-1.3-1.3-4c19.8-5.3,44.8-4,65.9-4
			c40.9,0,81.8,5.3,122.6,2.6c13.2-1.3,18.5-18.5,6.6-25.1c-36.9-22.4-80.4-30.3-122.6-31.6c-35.6-1.3-81.8-5.3-114.7,11.9
			c-25.1,13.2-39.6,42.2-27.7,69.9c4,9.2,10.6,15.8,17.1,21.1C322.5,701.1,305.4,726.2,310.6,755.2L310.6,755.2z"/>
	</g>
</g>
</svg>
