<?xml version="1.0" encoding="utf-8"?>
<!-- Generator: Adobe Illustrator 27.0.1, SVG Export Plug-In . SVG Version: 6.00 Build 0)  -->
<svg version="1.1" id="Layer_1" xmlns="http://www.w3.org/2000/svg" xmlns:xlink="http://www.w3.org/1999/xlink" x="0px" y="0px"
	 viewBox="0 0 74 60.8" style="enable-background:new 0 0 74 60.8;" xml:space="preserve">
<style type="text/css">
	.st0{fill-rule:evenodd;clip-rule:evenodd;fill:#FFFFFF;stroke:#000000;stroke-width:2.0319;stroke-miterlimit:10;}
	.st1{fill-rule:evenodd;clip-rule:evenodd;stroke:#000000;stroke-width:6.958305e-02;stroke-miterlimit:10;}
	.st2{fill:#C69C6D;stroke:#000000;stroke-width:1.3915;stroke-miterlimit:10;}
	.st3{fill:#999999;stroke:#000000;stroke-width:1.3915;stroke-miterlimit:10;}
	.st4{fill:#B3B3B3;stroke:#000000;stroke-width:1.3915;stroke-miterlimit:10;}
	.st5{display:none;fill:#55FFB4;}
</style>
<g>
	<path class="st0" d="M69,23.4L60,28.2c-1,0.6-2.2,0.1-2.8-0.8l-4.7-9.1c-0.6-1-0.1-2.2,0.8-2.8l9.1-4.7c1-0.6,2.2-0.1,2.8,0.8
		l4.7,9.1C70.4,21.6,70.2,22.9,69,23.4z"/>
	<circle class="st1" cx="58.3" cy="18.4" r="1.7"/>
	<g>
		<path class="st2" d="M24.5,45.9l-6.8-7c-3.9,3.6-7.8,7.3-11.9,10.7c-1.1,1-1.8,2.2-2,3.6c-0.1,1.8,0.1,3.3,1,4.7
			c0.8,1.3,2.1,2.1,3.5,2.5c0.7,0.1,1.3,0.3,2,0.3c1.4,0,2.7-0.6,3.6-1.4c0.8-0.8,1.3-2.2,0.7-3.5c-0.1-0.3-0.1-0.6-0.3-0.8
			c0-0.1,0.1-0.4,0.3-0.6L24.5,45.9z"/>
		<path class="st3" d="M62.8,22.2l-10.9-11c-1.1-1.1-2.7-1.7-4.2-1.7c-1.5,0-3.1,0.8-4,2C36,20.5,27.3,29.7,18.2,38.5
			c-0.3,0.3-0.4,0.6-0.4,1c0,0.4,0.1,0.7,0.4,1l5,5l8,8C43.2,43.7,53.6,33.5,62.8,22.2L62.8,22.2z M44.8,20.1c0-1.5,1.3-2.8,2.8-2.8
			c1.5,0,2.8,1.3,2.8,2.8c0,1.5-1.3,2.8-2.8,2.8C46,22.9,44.8,21.6,44.8,20.1z"/>
		<path class="st4" d="M62.8,22.3c-9.2,11.2-19.5,21.4-31.7,31.4l3.2,3.2c0.3,0.3,0.6,0.4,1,0.4c0.3,0,0.6-0.1,0.8-0.3
			c1-0.8,23.2-19.5,29.7-30c0.3-0.6,0.3-1.3-0.1-1.7L62.8,22.3z"/>
	</g>
	<path class="st0" d="M66.7,44.4l-9.1,4.7c-1,0.6-2.2,0.1-2.8-0.8l-4.7-9.1c-0.6-1-0.1-2.2,0.8-2.8l9.1-4.7c1-0.6,2.2-0.1,2.8,0.8
		l4.7,9.1C68.1,42.7,67.8,44,66.7,44.4z"/>
	<g>
		<path d="M38.5,9.3c-3.3-3.8-7.4-7-12.1-8.8c-0.4-0.1-1.1-0.4-1.5-0.6c0.6,0.1,1.5,0.3,2.1,0.4c4.6,1.3,8.7,3.8,12.3,6.7
			c0.3,0.3,0.6,0.4,0.8,0.7L38.5,9.3L38.5,9.3z"/>
	</g>
	<g>
		<path d="M28.3,18c-3.3-3.8-7.4-7-12.1-8.8c-0.4-0.1-1.1-0.4-1.5-0.6c0.6,0.1,1.5,0.3,2.1,0.4c4.6,1.3,8.7,3.8,12.3,6.7
			c0.3,0.3,0.6,0.4,0.8,0.7L28.3,18L28.3,18z"/>
	</g>
	<g>
		<path d="M32.9,13.7c-3.3-3.8-7.4-7-12.1-8.8c-0.4-0.1-1.1-0.4-1.5-0.6c0.6,0.1,1.5,0.3,2.1,0.4C25.9,6,30,8.5,33.6,11.4
			c0.3,0.3,0.6,0.4,0.8,0.7L32.9,13.7L32.9,13.7z"/>
	</g>
	<circle class="st1" cx="62.1" cy="41.4" r="1.7"/>
	<circle class="st1" cx="55.8" cy="39.8" r="1.7"/>
	<circle class="st1" cx="64.3" cy="20.1" r="1.7"/>
</g>
<path class="st5" d="M-8.7-179.2h-3.4h-75.4v252h75.4h3.4H92.5V72V61.6V0.8v-3v-177H-8.7z M76.8,61.6H-8.7V0.8h85.6L76.8,61.6
	L76.8,61.6z"/>
</svg>
