<?xml version="1.0" encoding="utf-8"?>
<!-- Generator: Adobe Illustrator 27.0.1, SVG Export Plug-In . SVG Version: 6.00 Build 0)  -->
<svg version="1.1" id="Layer_1" xmlns="http://www.w3.org/2000/svg" xmlns:xlink="http://www.w3.org/1999/xlink" x="0px" y="0px"
	 viewBox="0 0 1287.2 159.6" style="enable-background:new 0 0 1287.2 159.6;" xml:space="preserve">
<style type="text/css">
	.st0{fill:#020300;}
	.st1{fill:#2E2C37;}
	.st2{fill:#E5E1DE;stroke:#161417;stroke-width:1.7489;stroke-miterlimit:10;}
	.st3{fill:#161417;stroke:#6D6E70;stroke-width:1.7489;stroke-miterlimit:10;}
	.st4{fill:#FFFEFF;}
	.st5{fill:#C93E39;}
	.st6{fill:none;stroke:#404041;stroke-width:1.7489;stroke-linecap:round;stroke-linejoin:round;stroke-miterlimit:10;}
	.st7{fill:#3D3331;}
	.st8{fill:#1B3B52;}
	.st9{fill:#BBBDBF;}
	.st10{fill:#6D6E70;}
	.st11{opacity:0.7;}
	.st12{fill:#404041;}
	.st13{fill:none;stroke:#FFFEFF;stroke-width:2.9148;stroke-linecap:round;stroke-linejoin:round;stroke-miterlimit:10;}
	.st14{fill:#58595B;}
	.st15{opacity:0.3;fill:#FFFFFF;enable-background:new    ;}
	.st16{opacity:0.3;fill:#404041;enable-background:new    ;}
	.st17{fill:none;stroke:#404041;stroke-width:0.583;stroke-miterlimit:10;}
	.st18{fill:#11395A;}
	.st19{clip-path:url(#SVGID_00000067237909103775283600000002671954399709129650_);}
	.st20{fill:#374F67;}
	.st21{fill:#061728;}
	.st22{fill:#929497;}
	.st23{opacity:0.5;fill:#404041;enable-background:new    ;}
	.st24{fill:none;stroke:#C3996B;stroke-width:3.9541;stroke-linecap:round;stroke-linejoin:round;stroke-miterlimit:10;}
	.st25{fill:#E5E1DE;stroke:#161417;stroke-width:1.977;stroke-miterlimit:10;}
	.st26{fill:#161417;stroke:#6D6E70;stroke-width:1.9771;stroke-miterlimit:10.0003;}
	.st27{fill:#161417;stroke:#6D6E70;stroke-width:1.977;stroke-miterlimit:10;}
	.st28{fill:#F6921E;}
	.st29{fill:none;stroke:#BBBDBF;stroke-width:2.636;stroke-linecap:round;stroke-linejoin:round;stroke-miterlimit:10;}
	.st30{fill:#2D2A33;}
	.st31{fill:#F16522;}
	.st32{opacity:0.6;fill:#A6A8AB;enable-background:new    ;}
	.st33{fill:#6D7673;}
	.st34{clip-path:url(#SVGID_00000119085723157866503420000002876572682008715930_);}
	.st35{fill:#51787F;}
	.st36{fill:#D1EDFB;}
	.st37{fill:#161417;}
	.st38{fill:none;stroke:#BBBDBF;stroke-width:3.3484;stroke-linecap:round;stroke-linejoin:round;stroke-miterlimit:10;}
	.st39{fill:#322B32;}
	.st40{fill:#E5E1DE;stroke:#161417;stroke-width:1.435;stroke-miterlimit:10;}
	.st41{fill:#161417;stroke:#6D6E70;stroke-width:1.435;stroke-miterlimit:10;}
	.st42{fill:none;stroke:#BBBDBF;stroke-width:1.9134;stroke-linecap:round;stroke-linejoin:round;stroke-miterlimit:10;}
	.st43{fill:#112A40;}
	.st44{fill:#F1F1F2;}
	.st45{fill:#DF2D3D;}
	.st46{fill:#A6A8AB;}
	.st47{fill:#D0C6C7;stroke:#3D2F2C;stroke-width:0.9862;stroke-miterlimit:10;}
	.st48{fill:#161417;stroke:#6D6E70;stroke-width:1.4793;stroke-miterlimit:10;}
	.st49{fill:#FC4842;}
	.st50{fill:none;stroke:#BBBDBF;stroke-width:1.9723;stroke-linecap:round;stroke-linejoin:round;stroke-miterlimit:10;}
	.st51{fill:#413632;}
	.st52{fill:#FAAF40;}
</style>
<g>
	<g>
		<path class="st0" d="M582.8,139.5c0,0-11.8,0.2-12.2,7.8H417.6l-3.8,3.4H351l-3.5-3.6l-7.9-11.7l-3.8,0.2l35.9-16.9l90.8,0.9
			l68.1-5.4l14.6-7.4l30.6,4.8L582.8,139.5z"/>
		<g>
			<circle class="st1" cx="383.8" cy="139.5" r="20.1"/>
			<circle class="st2" cx="383.8" cy="139.5" r="12.1"/>
			<circle class="st3" cx="383.8" cy="139.5" r="5.3"/>
		</g>
		<path class="st4" d="M587.5,76.3L576,49.9h3.5c-8-9.2-48.8-9.3-48.8-9.3H518V22.7c0-7.2-5.9-13.1-13.1-13.1h-163
			c-7.2,0-13.1,5.9-13.1,13.1v53.6v4.9v22c0,24.9,7.6,35.8,7.6,35.8H355l6.5-11h43l8.2,11.5l107-1.1c0,0,8.3-12.1,11.3-17
			c3-5,6.9-5,6.9-5s18.3,0,23,0c4.7,0,7,4.1,7,4.1l7.5,13.3c3.8,5.9,7.4,5.4,7.4,5.4h13.8C595.5,94.9,587.5,76.3,587.5,76.3z"/>
		<path class="st5" d="M328.8,103.2h189.5V81.7h44.5c0,0,21.8,1.6,28.4,8.4c1.9,8.9,4,22.4,4.8,41.1h-15.9l-4,4h-0.1
			c-0.3-0.3-0.5-0.8-0.8-1.2l-7.5-13.3c0,0-2.3-4.1-7-4.1s-23,0-23,0s-3.9,0-6.9,5s-11.3,17-11.3,17l-107,1l-8.2-11.5h-43l-6.5,11
			h-18.5C336.5,139,328.8,128.1,328.8,103.2z"/>
		<g>
			
				<ellipse transform="matrix(0.1602 -0.9871 0.9871 0.1602 324.0366 659.886)" class="st1" cx="549.8" cy="139.5" rx="20.1" ry="20.1"/>
			<circle class="st2" cx="549.8" cy="139.5" r="12.1"/>
			<circle class="st3" cx="549.8" cy="139.5" r="5.3"/>
		</g>
		<path class="st6" d="M576,49.9h-47.2c0,0-3.7,0.6-3.7,4.3c0,3.7,0,55,0,55s0,5.3,7.4,5.3h30.4c0,0,4.3-0.5,7.5,4.8l4.2,6.4
			c0,0,0.7,2.4,6.8,2.4h14.6"/>
		<path class="st5" d="M520,73.2c0,0.9,0.7,1.6,1.6,1.6l0,0c0.9,0,1.6-0.7,1.6-1.6V61.6c0-0.9-0.7-1.6-1.6-1.6l0,0
			c-0.9,0-1.6,0.7-1.6,1.6V73.2z"/>
		<polygon class="st7" points="574.6,52.9 565.6,52.9 574.6,74.7 584.5,74.7 		"/>
		<polygon class="st7" points="562.4,52.9 570.5,74.7 529.2,74.7 529.2,52.9 		"/>
		<polygon class="st8" points="574.6,74.7 566.6,55.1 570.9,55.1 579.9,74.7 		"/>
		<polygon class="st8" points="529.2,74.7 529.5,55.1 558.7,55.1 565.9,74.7 		"/>
		<polygon class="st6" points="574.6,52.9 565.6,52.9 574.6,74.7 584.5,74.7 		"/>
		<polygon class="st6" points="562.4,52.9 570.5,74.7 529.2,74.7 529.2,52.9 		"/>
		<path class="st9" d="M528.2,88.1c0,0.8,0.6,1.5,1.5,1.5h9c0.8,0,1.5-0.6,1.5-1.5l0,0c0-0.8-0.6-1.5-1.5-1.5h-9
			C528.8,86.6,528.2,87.3,528.2,88.1L528.2,88.1z"/>
		<path class="st6" d="M419.7,115.7c0,1.3,1.1,2.3,2.3,2.3h7.4c1.3,0,2.3-1.1,2.3-2.3v-6.1c0-1.3-1.1-2.3-2.3-2.3H422
			c-1.3,0-2.3,1.1-2.3,2.3V115.7z"/>
		<polygon class="st10" points="421.9,113.3 421.9,113.3 423.5,113.3 423.5,113.3 423.5,111.7 423.5,111.7 421.9,111.7 421.9,111.7 
					"/>
		<g class="st11">
			<rect x="335.8" y="106.9" class="st12" width="21.5" height="1.9"/>
			<rect x="335.8" y="109.6" class="st12" width="21.5" height="1.9"/>
			<rect x="335.8" y="112.3" class="st12" width="21.5" height="1.9"/>
			<rect x="335.8" y="115" class="st12" width="21.5" height="1.9"/>
			<rect x="335.8" y="117.7" class="st12" width="21.5" height="1.9"/>
			<rect x="335.8" y="120.4" class="st12" width="21.5" height="1.9"/>
			<rect x="335.8" y="123.1" class="st12" width="21.5" height="1.9"/>
			<rect x="335.8" y="125.9" class="st12" width="21.5" height="1.9"/>
		</g>
		<polyline class="st13" points="414,141.4 404.5,128 361.5,128 353.5,141.4 		"/>
		<path class="st12" d="M604.5,140.6c0,1.5-0.8,2.6-1.7,2.6h-18.4c-0.9,0-1.7-1.2-1.7-2.6V138c0-1.5,0.8-2.6,1.7-2.6h18.4
			c0.9,0,1.7,1.2,1.7,2.6V140.6z"/>
		<path class="st14" d="M578.5,140.8c0,0.6,0.8,1.1,1.7,1.1h24c0.9,0,1.7-0.5,1.7-1.1v-0.2c0-0.6-0.8-1.1-1.7-1.1h-24
			c-0.9,0-1.7,0.5-1.7,1.1V140.8z"/>
		<polygon class="st15" points="518.4,107.3 518.4,133.8 517.2,133.8 517.2,108.9 438.7,108.9 438.7,133.8 436.4,133.8 436.4,107.3 
					"/>
		<rect x="436.4" y="107.3" class="st6" width="81.9" height="26.5"/>
		<g>
			<path class="st16" d="M335.8,86.6c0,1,0.8,1.8,1.9,1.8h127.3c1.1,0,1.9-0.8,1.9-1.8l0,0c0-1-0.8-1.8-1.9-1.8H337.6
				C336.6,84.8,335.8,85.6,335.8,86.6L335.8,86.6z"/>
			<path class="st16" d="M335.8,97.2c0,1,0.8,1.8,1.9,1.8h127.3c1.1,0,1.9-0.8,1.9-1.8l0,0c0-1-0.8-1.8-1.9-1.8H337.6
				C336.6,95.4,335.8,96.2,335.8,97.2L335.8,97.2z"/>
		</g>
		<line class="st17" x1="518" y1="40.5" x2="518" y2="103.2"/>
	</g>
	<path class="st18" d="M497.7,37.6c0-1.5-1.2-2.6-2.6-2.6H342.7c-1.5,0-2.6,1.2-2.6,2.6v35.4c0,1.5,1.2,2.6,2.6,2.6H495
		c1.5,0,2.6-1.2,2.6-2.6L497.7,37.6L497.7,37.6z"/>
	<g>
		<g>
			<g>
				<defs>
					<path id="SVGID_1_" d="M497.7,37.6c0-1.5-1.2-2.6-2.6-2.6H342.7c-1.5,0-2.6,1.2-2.6,2.6v35.4c0,1.5,1.2,2.6,2.6,2.6H495
						c1.5,0,2.6-1.2,2.6-2.6L497.7,37.6L497.7,37.6z"/>
				</defs>
				<clipPath id="SVGID_00000125598001782996482120000017673168897204184490_">
					<use xlink:href="#SVGID_1_"  style="overflow:visible;"/>
				</clipPath>
				<g style="clip-path:url(#SVGID_00000125598001782996482120000017673168897204184490_);">
					<polygon class="st20" points="378.1,81.4 347.9,80.2 393,30.4 423.3,31.6 					"/>
					<polygon class="st20" points="389,79.2 385.2,79.1 426.4,33.7 430.1,33.8 					"/>
				</g>
			</g>
		</g>
	</g>
	<rect x="340.1" y="63.1" class="st21" width="157.6" height="3.3"/>
	<rect x="340.1" y="48" class="st21" width="157.6" height="3.3"/>
	<path class="st5" d="M340.1,74.7v3.8c0,2.6,2.1,4.7,4.7,4.7H493c2.6,0,4.7-2.1,4.7-4.7v-3.8H340.1z"/>
	<rect x="337.7" y="34.5" class="st22" width="162.2" height="3.2"/>
	<rect x="337.7" y="72.4" class="st22" width="162.2" height="2.3"/>
	<rect x="340.1" y="74.7" class="st23" width="157.6" height="2.3"/>
</g>
<g>
	<g>
		<path class="st24" d="M706.3,127.9c0,0-3-68.7-22.8-99.2"/>
		<polygon class="st0" points="901.7,140.2 856.3,140.2 860,146.4 901.7,146.4 		"/>
		<polygon class="st0" points="784.4,146.4 726.9,146.4 723.1,140.2 788.8,140.2 		"/>
		<polygon class="st0" points="922.4,143.2 709.3,143.2 709.3,103.5 864.8,101.1 950.6,121.7 		"/>
		<path class="st4" d="M954.9,133.8V114c0,0-0.7-9.5-4.2-14.6C945,91.1,932.1,84,932.1,84l-41.1-51.5l-4.9-5.3
			c-9.4-10.3-20-17.7-39-17.7H716.9c-5.9,0-10.6,4.8-10.6,10.6v5.3v15.7v99.3l23.4,0.1c1.3-13.6,12.6-24.2,26.5-24.2
			c13.9,0,25.3,10.7,26.5,24.3l100.6,0.2c1.1-13.8,12.6-24.7,26.8-24.7c11.6,0,21.4,7.3,25.2,17.6L954.9,133.8L954.9,133.8
			L954.9,133.8z"/>
		<g>
			
				<ellipse transform="matrix(0.7071 -0.7071 0.7071 0.7071 122.9351 575.3262)" class="st1" cx="755.9" cy="139.3" rx="20.3" ry="20.3"/>
			<circle class="st25" cx="755.9" cy="139.3" r="12.3"/>
			
				<ellipse transform="matrix(0.9239 -0.3827 0.3827 0.9239 4.2485 299.8983)" class="st26" cx="756" cy="139.3" rx="5.4" ry="5.4"/>
		</g>
		<g>
			<circle class="st1" cx="909.8" cy="139.3" r="20.3"/>
			<circle class="st25" cx="909.8" cy="139.3" r="12.5"/>
			<circle class="st27" cx="909.8" cy="139.3" r="4.8"/>
		</g>
		<path class="st28" d="M928.5,112.1c0,0.8-0.6,1.4-1.4,1.4h-3.2c-0.8,0-1.4-0.6-1.4-1.4v-1.1c0-0.8,0.6-1.4,1.4-1.4h3.2
			c0.8,0,1.4,0.6,1.4,1.4V112.1z"/>
		<path class="st29" d="M726.4,137.7c2.4-14,14.8-24.8,29.5-24.8c15.8,0,28.7,12.2,29.9,27.7"/>
		<path class="st29" d="M880,140.6c1.2-15.5,14.1-27.7,29.9-27.7c12.3,0,22.9,7.4,27.5,18.1"/>
		<rect x="833" y="120.2" class="st29" width="11" height="3.3"/>
		<rect x="833" y="126.3" class="st29" width="11" height="3.3"/>
		<rect x="861.3" y="93.2" class="st29" width="11.7" height="3"/>
		<path class="st12" d="M961.8,132.8c0,3-3.5,5.3-7.8,5.3h-14.4c-4.3,0-7.8-2.4-7.8-5.3V125c0-3,3.5-5.3,7.8-5.3H954
			c4.3,0,7.8,2.4,7.8,5.3V132.8z"/>
		<path class="st12" d="M699.5,139.5c0,3,1.9,5.3,6.1,5.3h19.7c4.3,0,7.8-2.4,7.8-5.3v-7.8c0-3-3.5-5.3-7.8-5.3h-19.7
			c-4.3,0-6.1,2.4-6.1,5.3V139.5z"/>
		<path class="st30" d="M844.1,136c0,1.1-0.9,2.1-2.1,2.1h-51.2c-1.1,0-2.1-0.9-2.1-2.1l0,0c0-1.1,0.9-2.1,2.1-2.1H842
			C843.1,133.9,844.1,134.9,844.1,136L844.1,136z"/>
		<path class="st30" d="M734.5,138.6c0,1.1-0.9,2.1-2.1,2.1h-33.6c-1.1,0-1.5-0.9-1.5-2.1l0,0c0-1.1,0.3-2.1,1.5-2.1h33.6
			C733.6,136.6,734.5,137.5,734.5,138.6L734.5,138.6z"/>
		<path class="st30" d="M963,131.6c0,1.1-0.1,2.1-1.3,2.1h-29.6c-1.1,0-2.1-0.9-2.1-2.1l0,0c0-1.1,0.9-2.1,2.1-2.1h29.6
			C962.9,129.6,963,130.5,963,131.6L963,131.6z"/>
		<path class="st8" d="M925.6,83.9l-18-25.3c0,0-1-1.3-3-2.4c-2.1-1.1-4.9-1.1-4.9-1.1h-33c0,0-2.9-0.1-4.9,1.5
			c-2.1,1.5-2.2,4.3-2.2,4.3v17.9c0,0,0.1,3.1,1.7,4.3c2,1.4,5.8,0.9,5.8,0.9L925.6,83.9L925.6,83.9z"/>
		<path class="st29" d="M925.6,83.9l-18-25.3c0,0-1-1.3-3-2.4c-2.1-1.1-4.9-1.1-4.9-1.1h-33c0,0-2.9-0.1-4.9,1.5
			c-2.1,1.5-2.2,4.3-2.2,4.3v17.9c0,0,0.1,3.1,1.7,4.3c2,1.4,5.8,0.9,5.8,0.9L925.6,83.9L925.6,83.9z"/>
		<line class="st29" x1="901" y1="55.1" x2="901" y2="83.9"/>
		<path class="st29" d="M871.1,83.9h-11.5c0,0-4.4,1.3-4.4,5.3v50"/>
		<line class="st29" x1="919.4" y1="75.3" x2="919.4" y2="114.2"/>
		<path class="st12" d="M911.8,72.4v16.9c3.2,0,5.9-2.6,5.9-5.9v-5.1C917.5,75,915,72.4,911.8,72.4z"/>
		<path class="st4" d="M685.3,31.6c0,0-25,6.6-21.7,35.6c0,0,6-17.7,27.8-22.3C691.4,45,678.6,40.7,685.3,31.6z"/>
		<path class="st31" d="M954.9,114c0,0-0.2-2.8-1-6.2h-10.3c-2.3,0-3.4,1.9-2.6,4.1l0.9,2.3c0.9,2.3,3.4,4.1,5.6,4.1h7.5L954.9,114
			L954.9,114z"/>
	</g>
	<rect x="716.8" y="86.2" class="st32" width="115.3" height="4.5"/>
	<rect x="719.4" y="52.8" class="st8" width="42.6" height="28.9"/>
	<rect x="764" y="52.8" class="st8" width="65.1" height="28.9"/>
	<rect x="719.4" y="52.8" class="st33" width="1.3" height="28.9"/>
	<polygon class="st22" points="823.8,81.8 823.6,81.8 812.8,81.8 802,81.8 791.1,81.8 791,81.8 780.2,81.8 769.5,81.8 769.3,81.8 
		758.5,81.8 747.8,81.8 747.6,81.8 736.8,81.8 726,81.8 725.9,81.8 715.1,81.8 715.1,86.4 725.9,86.4 726,86.4 736.8,86.4 
		747.6,86.4 747.8,86.4 758.5,86.4 769.3,86.4 769.5,86.4 780.2,86.4 791,86.4 791.1,86.4 802,86.4 812.8,86.4 823.6,86.4 
		823.8,86.4 834.6,86.4 834.6,81.8 	"/>
	<g>
		<g>
			<g>
				<defs>
					<rect id="SVGID_00000075144829482264033450000004853492452489276589_" x="764" y="52.8" width="65.1" height="28.9"/>
				</defs>
				<clipPath id="SVGID_00000027596713592901126110000015591412492928256696_">
					<use xlink:href="#SVGID_00000075144829482264033450000004853492452489276589_"  style="overflow:visible;"/>
				</clipPath>
				<g style="clip-path:url(#SVGID_00000027596713592901126110000015591412492928256696_);">
					<polygon class="st35" points="775.3,85.4 739.6,85.4 783.8,47.5 819.6,47.7 					"/>
					<polygon class="st35" points="790.5,85.5 780.4,85.4 824.7,47.7 834.9,47.7 					"/>
				</g>
			</g>
		</g>
	</g>
	<rect x="826.1" y="52.8" class="st12" width="3" height="28.9"/>
	<g>
		<path class="st36" d="M739.8,69.1L739.8,69.1L739.8,69.1z"/>
	</g>
</g>
<g>
	<g>
		<g>
			<path class="st9" d="M1114.8,13.3c0-2.1-1.7-3.7-3.7-3.7h-29.6c-2.1,0-3.7,1.7-3.7,3.7V25c0,2.1,1.7,3.7,3.7,3.7h29.6
				c2.1,0,3.7-1.7,3.7-3.7V13.3L1114.8,13.3z"/>
			<g>
				<path class="st37" d="M1090,13.3c0,0.4-0.3,0.8-0.8,0.8h-7.5c-0.4,0-0.8-0.3-0.8-0.8l0,0c0-0.4,0.3-0.8,0.8-0.8h7.5
					C1089.6,12.5,1090,12.9,1090,13.3L1090,13.3z"/>
				<path class="st37" d="M1100.8,13.3c0,0.4-0.3,0.8-0.8,0.8h-7.5c-0.4,0-0.8-0.3-0.8-0.8l0,0c0-0.4,0.3-0.8,0.8-0.8h7.5
					C1100.4,12.5,1100.8,12.9,1100.8,13.3L1100.8,13.3z"/>
				<path class="st37" d="M1111.5,13.3c0,0.4-0.3,0.8-0.8,0.8h-7.4c-0.4,0-0.8-0.3-0.8-0.8l0,0c0-0.4,0.3-0.8,0.8-0.8h7.5
					C1111.2,12.5,1111.5,12.9,1111.5,13.3L1111.5,13.3z"/>
			</g>
			<g>
				<path class="st37" d="M1090.1,16.5c0,0.4-0.3,0.8-0.8,0.8h-7.5c-0.4,0-0.8-0.3-0.8-0.8l0,0c0-0.4,0.3-0.8,0.8-0.8h7.5
					C1089.7,15.8,1090.1,16.1,1090.1,16.5L1090.1,16.5z"/>
				<path class="st37" d="M1100.9,16.5c0,0.4-0.3,0.8-0.8,0.8h-7.5c-0.4,0-0.8-0.3-0.8-0.8l0,0c0-0.4,0.3-0.8,0.8-0.8h7.5
					C1100.5,15.8,1100.9,16.1,1100.9,16.5L1100.9,16.5z"/>
				<path class="st37" d="M1111.6,16.5c0,0.4-0.3,0.8-0.8,0.8h-7.5c-0.4,0-0.8-0.3-0.8-0.8l0,0c0-0.4,0.3-0.8,0.8-0.8h7.5
					C1111.3,15.8,1111.6,16.1,1111.6,16.5L1111.6,16.5z"/>
			</g>
		</g>
		<path class="st38" d="M1046.4,79.8h-3.6c-5.2,0-9.4,4.2-9.4,9.4v49.5"/>
		<rect x="1030" y="134.9" class="st39" width="28.7" height="7.7"/>
		<polygon class="st0" points="1233,138.7 1192,138.7 1195.3,144.3 1233,144.3 		"/>
		<polygon class="st0" points="1126.9,144.3 1074.9,144.3 1071.5,138.7 1130.8,138.7 		"/>
		<polygon class="st0" points="1251.7,141.4 1047.3,141.4 1047.3,105.6 1199.7,101.8 1277.3,120.4 		"/>
		<path class="st28" d="M1283.5,115.2c0,1.6-1.3,3-3,3h-4.5c-1.6,0-3-1.3-3-3v-8.9c0-1.6,1.3-3,3-3h4.5c1.6,0,3,1.3,3,3V115.2z"/>
		<path class="st28" d="M1052.6,115.2c0,1.6-1.3,3-3,3h-4.6c-1.6,0-3-1.3-3-3v-8.9c0-1.6,1.3-3,3-3h4.5c1.6,0,3,1.3,3,3
			L1052.6,115.2L1052.6,115.2z"/>
		<path class="st4" d="M1280.9,132.8V97.4c0,0-0.2-4.7-2.6-6.9c-2.4-2.3-29.5-11.9-29.5-11.9l-6.6-43.7v-4.8c0-5.3-4.3-9.6-9.6-9.6
			H1054c-5.3,0-9.6,4.3-9.6,9.6v4.8v14.2V139l32.7,0c1.1-12.2,11.4-21.9,24-21.9c12.6,0,22.9,9.7,24,22l91,0.2
			c1-12.5,11.5-22.3,24.3-22.3c10.5,0,19.4,6.6,22.8,15.9L1280.9,132.8L1280.9,132.8L1280.9,132.8z"/>
		<circle class="st1" cx="1101.2" cy="141.2" r="18.4"/>
		<circle class="st40" cx="1101.2" cy="141.2" r="11.1"/>
		
			<ellipse transform="matrix(0.1602 -0.9871 0.9871 0.1602 902.3339 1342.9812)" class="st1" cx="1240.4" cy="141.2" rx="18.4" ry="18.4"/>
		
			<ellipse transform="matrix(0.1602 -0.9871 0.9871 0.1602 902.3337 1342.9811)" class="st40" cx="1240.4" cy="141.2" rx="11.3" ry="11.3"/>
		<circle class="st41" cx="1101.2" cy="141.2" r="4.9"/>
		<circle class="st41" cx="1240.4" cy="141.2" r="4.4"/>
		<path class="st28" d="M1259.3,112.8c0,0.7-0.6,1.2-1.2,1.2h-2.9c-0.7,0-1.2-0.6-1.2-1.2v-1c0-0.7,0.6-1.2,1.2-1.2h2.9
			c0.7,0,1.2,0.6,1.2,1.2V112.8z"/>
		<path class="st28" d="M1055.3,112.8c0,0.7-0.6,1.2-1.2,1.2h-2.9c-0.7,0-1.2-0.6-1.2-1.2v-1c0-0.7,0.6-1.2,1.2-1.2h2.9
			c0.7,0,1.2,0.6,1.2,1.2V112.8z"/>
		<g>
			<path class="st42" d="M1074.4,136.5c2.3-12.7,13.3-22.4,26.7-22.4c14.3,0,26,11,27,25.1"/>
			<path class="st42" d="M1213.4,139.1c1.1-14,12.8-25.1,27-25.1c11.2,0,20.8,6.7,24.9,16.4"/>
			<polyline class="st42" points="1184.9,139.1 1184.9,39.6 1222.9,39.6 1222.9,120.5 			"/>
			<line class="st42" x1="1222.9" y1="97.3" x2="1280.9" y2="97.3"/>
			<rect x="1189.7" y="127" class="st42" width="10" height="3"/>
			<rect x="1189.7" y="132.5" class="st42" width="10" height="3"/>
		</g>
		<rect x="1215" y="81.8" class="st42" width="2.7" height="10.6"/>
		<path class="st12" d="M1287.8,130.2c0,2.7-2.4,4.8-5.5,4.8h-10.1c-3,0-5.5-2.1-5.5-4.8v-7.1c0-2.7,2.4-4.8,5.5-4.8h10.1
			c3,0,5.5,2.1,5.5,4.8L1287.8,130.2L1287.8,130.2z"/>
		<g>
			<circle class="st42" cx="1270.9" cy="123" r="1"/>
			<circle class="st42" cx="1270.9" cy="130.2" r="1"/>
		</g>
		<line class="st42" x1="1220.4" y1="39.6" x2="1242.3" y2="39.6"/>
		<path class="st42" d="M1238.2,81.8h8.4c2.7,0,4.8-2.1,4.8-4.8V46.4c0-2.7-2.1-4.8-4.8-4.8h-8.4"/>
		<path class="st43" d="M1244.5,73.7l-3-24.3c0-2.7-2.1-4.8-4.8-4.8h-5.2c-1.5,0-2.9,0.7-3.8,1.9h0.8h2.9h2.3c2.7,0,4.8,2.1,4.8,4.8
			l2.5,20.2l0.8,6.7C1243.5,77.4,1244.5,75.7,1244.5,73.7z"/>
		<path class="st8" d="M1238.5,51.3c0-2.7-2.1-4.8-4.8-4.8h-2.3h-2.9h-0.8c-0.6,0.8-1.1,1.9-1.1,3v24.3c0,2.7,2.1,4.8,4.8,4.8h8.5
			c0.7,0,1.3-0.2,1.8-0.4l-0.8-6.7L1238.5,51.3z"/>
		<path class="st43" d="M1212.9,44.5h-18.1c-1.5,0-2.9,0.7-3.8,1.9h0.1h8h10.1c2.7,0,4.8,2.1,4.8,4.8v12.1v12.1v2.8
			c2.1-0.5,3.7-2.4,3.7-4.7V49.4C1217.7,46.7,1215.6,44.5,1212.9,44.5z"/>
		<path class="st8" d="M1214,63.4V51.3c0-2.7-2.1-4.8-4.8-4.8h-10.1h-8h-0.1c-0.6,0.8-1.1,1.9-1.1,3v24.3c0,2.7,2.1,4.8,4.8,4.8
			h18.1c0.4,0,0.8,0,1.1-0.2v-2.8V63.4L1214,63.4z"/>
		<path class="st9" d="M1247.1,52.5v14.6c1.6,0,3-1.3,3-3v-8.6C1250.1,53.8,1248.7,52.5,1247.1,52.5z"/>
		<path class="st9" d="M1247.1,68.6v8.6c1.6,0,3-1.3,3-3v-2.6C1250.1,70,1248.7,68.6,1247.1,68.6z"/>
		<g>
			<path class="st16" d="M1180.9,92.5c0,1.1-0.9,1.9-1.9,1.9h-130.2c-1.1,0-1.9-0.8-1.9-1.9l0,0c0-1.1,0.9-1.9,1.9-1.9H1179
				C1180,90.6,1180.9,91.5,1180.9,92.5L1180.9,92.5z"/>
			<path class="st16" d="M1180.9,103.3c0,1.1-0.9,1.9-1.9,1.9h-130.2c-1.1,0-1.9-0.8-1.9-1.9l0,0c0-1.1,0.9-1.9,1.9-1.9H1179
				C1180,101.5,1180.9,102.3,1180.9,103.3L1180.9,103.3z"/>
		</g>
		<path class="st30" d="M1072,134.9c0,1.1-0.8,1.9-1.9,1.9h-21.4c-1.1,0-1.9-0.8-1.9-1.9l0,0c0-1.1,0.8-1.9,1.9-1.9h21.4
			C1071.2,133,1072,133.9,1072,134.9L1072,134.9z"/>
		<path class="st30" d="M1180.9,134.9c0,1.1-0.8,1.9-1.9,1.9h-46.4c-1.1,0-1.9-0.8-1.9-1.9l0,0c0-1.1,0.8-1.9,1.9-1.9h46.4
			C1180.1,133,1180.9,133.9,1180.9,134.9L1180.9,134.9z"/>
		<rect x="1199.7" y="44.5" class="st9" width="2.3" height="34"/>
	</g>
	<g>
		<polygon class="st22" points="1167.7,79.8 1167.5,79.8 1155.7,79.8 1143.7,79.8 1131.9,79.8 1131.8,79.8 1120,79.8 1108.1,79.8 
			1108,79.8 1096.1,79.8 1084.3,79.8 1084.2,79.8 1072.4,79.8 1060.6,79.8 1060.4,79.8 1048.5,79.8 1048.5,82.8 1060.4,82.8 
			1060.6,82.8 1072.4,82.8 1084.2,82.8 1084.3,82.8 1096.1,82.8 1108,82.8 1108.1,82.8 1120,82.8 1131.8,82.8 1131.9,82.8 
			1143.7,82.8 1155.7,82.8 1167.5,82.8 1167.7,82.8 1179.5,82.8 1179.5,79.8 		"/>
		<rect x="1050.4" y="82.8" class="st32" width="126.5" height="1.9"/>
		<rect x="1053.2" y="45.6" class="st8" width="44.3" height="34.1"/>
		<rect x="1100.6" y="45.6" class="st8" width="23.6" height="34.1"/>
		<rect x="1126.9" y="45.6" class="st8" width="22.9" height="34.1"/>
		<rect x="1153.2" y="45.6" class="st8" width="20.3" height="34.1"/>
		<rect x="1170.3" y="45.6" class="st33" width="3.2" height="34.1"/>
		<rect x="1053.2" y="45.6" class="st33" width="1.3" height="34.1"/>
		<g>
			<g>
				<path class="st5" d="M1049,43.7v5.9c0,3.3,2.2,6,5,6c2.7,0,5-2.7,5-6v-5.9H1049z"/>
			</g>
			<g>
				<path class="st28" d="M1058.9,43.7v5.9c0,3.3,2.2,6,5,6c2.7,0,5-2.7,5-6v-5.9H1058.9z"/>
			</g>
			<g>
				<path class="st5" d="M1068.9,43.7v5.9c0,3.3,2.2,6,5,6c2.7,0,5-2.7,5-6v-5.9H1068.9z"/>
			</g>
			<g>
				<path class="st28" d="M1078.8,43.7v5.9c0,3.3,2.2,6,5,6c2.7,0,5-2.7,5-6v-5.9H1078.8z"/>
			</g>
			<g>
				<path class="st5" d="M1088.7,43.7v5.9c0,3.3,2.2,6,5,6c2.7,0,5-2.7,5-6v-5.9H1088.7z"/>
			</g>
			<g>
				<path class="st28" d="M1098.7,43.7v5.9c0,3.3,2.2,6,5,6c2.7,0,5-2.7,5-6v-5.9H1098.7z"/>
			</g>
			<g>
				<path class="st5" d="M1108.6,43.7v5.9c0,3.3,2.2,6,5,6c2.7,0,5-2.7,5-6v-5.9H1108.6z"/>
			</g>
			<g>
				<path class="st28" d="M1128.4,43.7h-9.9v5.9c0,3.3,2.2,6,5,6c2.7,0,4.8-2.5,5-5.7c0-0.1,0-0.2,0-0.2L1128.4,43.7L1128.4,43.7
					L1128.4,43.7z"/>
			</g>
			<g>
				<path class="st5" d="M1128.4,43.7v5.9c0,0.1,0,0.2,0,0.2c0.1,3.2,2.3,5.7,5,5.7c2.7,0,5-2.7,5-6v-5.9L1128.4,43.7L1128.4,43.7z"
					/>
			</g>
			<g>
				<path class="st5" d="M1128.4,43.7L1128.4,43.7v5.9c0,0.1,0,0.2,0,0.2c0-0.1,0-0.2,0-0.2V43.7z"/>
			</g>
			<g>
				<path class="st28" d="M1138.3,43.7v5.9c0,3.3,2.2,6,5,6c2.7,0,5-2.7,5-6v-5.9H1138.3z"/>
			</g>
			<g>
				<path class="st5" d="M1148.3,43.7v5.9c0,3.3,2.2,6,5,6c2.7,0,5-2.7,5-6v-5.9H1148.3z"/>
			</g>
			<g>
				<path class="st5" d="M1168.1,43.7v5.9l0,0c0,3.3,2.2,6,5,6c2.7,0,5-2.7,5-6v-5.9H1168.1z"/>
			</g>
			<g>
				<path class="st28" d="M1168.1,43.7h-10v5.9c0,3.3,2.2,6,5,6c2.7,0,5-2.7,5-6l0,0V43.7z"/>
			</g>
			<g>
				<polygon class="st5" points="1168.1,43.7 1168.1,43.7 1168.1,49.6 1168.1,49.6 1168.1,49.6 				"/>
			</g>
		</g>
		<polygon class="st28" points="1053.2,39 1049,43.7 1178.5,43.7 1175,39 		"/>
		<g>
			<rect x="1155.9" y="58.3" class="st44" width="11.6" height="19.6"/>
			<rect x="1157.5" y="60" class="st45" width="8.9" height="2.1"/>
			<rect x="1157.5" y="64.3" class="st46" width="8.5" height="0.5"/>
			<rect x="1157.5" y="65.5" class="st46" width="8.5" height="0.5"/>
			<rect x="1157.5" y="66.7" class="st46" width="8.5" height="0.5"/>
			<rect x="1157.5" y="68.1" class="st46" width="8.5" height="0.5"/>
			<rect x="1157.5" y="73.7" class="st46" width="2.4" height="0.5"/>
			<rect x="1157.5" y="74.7" class="st46" width="2.4" height="0.5"/>
		</g>
	</g>
</g>
<g>
	<path class="st4" d="M241.4,106.1V81.3c0,0-0.2-4.9-2.7-7.2c-2.5-2.3-31.9-16.1-31.9-16.1l-6.6-33.8H2.6v81.5L241.4,106.1z"/>
	<polygon class="st28" points="182,104.9 182,103.1 132,103.1 132,104.9 2.8,104.9 2.8,109.1 132,109.1 182,109.1 241.4,109.1 
		241.4,104.9 	"/>
	<polygon class="st7" points="32.5,132.6 80.5,135.5 175.1,135.5 224.2,135.5 229.4,129.8 224.9,113.9 45.8,112.3 27.5,119.2 	"/>
	<circle class="st1" cx="56.1" cy="140.6" r="18.9"/>
	<circle class="st47" cx="56.1" cy="140.6" r="11.4"/>
	<circle class="st47" cx="56.1" cy="140.6" r="11.4"/>
	
		<ellipse transform="matrix(0.1602 -0.9871 0.9871 0.1602 28.846 315.1827)" class="st1" cx="199.6" cy="140.6" rx="18.9" ry="18.9"/>
	<circle class="st47" cx="199.6" cy="140.6" r="11.7"/>
	<circle class="st48" cx="56.1" cy="140.6" r="6.3"/>
	<circle class="st48" cx="199.6" cy="140.6" r="6.4"/>
	<path class="st12" d="M182,108.8V107H132v2.1H0v22.6l30.4,4.2l1.1,0c2.1-11.6,12.3-20.4,24.5-20.4c13.1,0,23.8,10.1,24.9,22.8h93.5
		h0.2c1.1-12.8,11.8-22.9,25-22.9c13.1,0,23.9,10.1,25,22.9h0.2l18.4-3.6v-26.2L182,108.8L182,108.8z"/>
	<path class="st49" d="M12.3,30.6c0,0.9-0.7,1.6-1.6,1.6H7.1c-0.9,0-1.6-0.7-1.6-1.6v-1.2c0-0.9,0.7-1.6,1.6-1.6h3.7
		c0.9,0,1.6,0.7,1.6,1.6V30.6z"/>
	<path class="st49" d="M236.3,100.6c0,0.9-0.7,1.6-1.6,1.6h-3.7c-0.9,0-1.6-0.7-1.6-1.6v-1.2c0-0.9,0.7-1.6,1.6-1.6h3.7
		c0.9,0,1.6,0.7,1.6,1.6V100.6z"/>
	<polygon class="st12" points="200.3,24.2 199.1,15.8 0,15.8 0,22.2 2.6,24.2 	"/>
	<path class="st4" d="M182.3,15.8c0,0-0.2-6.3-10.5-6.3h-7.3v6.3H182.3z"/>
	<rect x="138" y="13.7" class="st10" width="26.5" height="2.1"/>
	<path class="st50" d="M28.6,135.8c2.3-13.1,13.8-23.1,27.5-23.1c14.7,0,26.8,11.4,27.9,25.8"/>
	<path class="st50" d="M171.7,138.5c1.1-14.4,13.2-25.8,27.9-25.8c14.5,0,26.5,11.1,27.9,25.3"/>
	<polyline class="st50" points="132,138.5 132,35.9 181.5,35.9 181.5,119.3 	"/>
	<line class="st50" x1="181.5" y1="81" x2="241.4" y2="81"/>
	<rect x="137.1" y="120.3" class="st50" width="20.6" height="3.1"/>
	<rect x="137.1" y="126" class="st50" width="20.6" height="3.1"/>
	<rect x="137.1" y="131.7" class="st50" width="20.6" height="3.1"/>
	<g>
		<rect x="23.3" y="86.1" class="st4" width="10.2" height="4.2"/>
		<rect x="43.4" y="86.1" class="st4" width="10.2" height="4.2"/>
		<rect x="63.6" y="86.1" class="st4" width="10.2" height="4.2"/>
		<rect x="83.8" y="86.1" class="st4" width="10.2" height="4.2"/>
		<rect x="104.1" y="86.1" class="st4" width="10.2" height="4.2"/>
	</g>
	<g>
		<rect x="13.3" y="86.1" class="st28" width="10.2" height="4.2"/>
		<rect x="33.4" y="86.1" class="st28" width="10.2" height="4.2"/>
		<rect x="53.6" y="86.1" class="st28" width="10.2" height="4.2"/>
		<rect x="73.8" y="86.1" class="st28" width="10.2" height="4.2"/>
		<rect x="93.9" y="86.1" class="st28" width="10.2" height="4.2"/>
		<rect x="114.1" y="86.1" class="st28" width="10.2" height="4.2"/>
	</g>
	<rect x="14.8" y="90.3" class="st46" width="107.2" height="2.7"/>
	<rect x="17.1" y="37.3" class="st51" width="37.5" height="48.8"/>
	<rect x="57.4" y="37.3" class="st33" width="20" height="48.8"/>
	<rect x="79.6" y="37.3" class="st33" width="19.4" height="48.8"/>
	<rect x="101.9" y="37.3" class="st51" width="17.3" height="48.8"/>
	<rect x="116.5" y="37.3" class="st33" width="2.7" height="48.8"/>
	<rect x="17.1" y="37.3" class="st33" width="1.1" height="48.8"/>
	<rect x="173.4" y="79.4" class="st7" width="2.8" height="10.9"/>
	<polygon class="st7" points="176.3,41 138,41 138,46.2 166.9,46.2 166.9,76 176.3,76 	"/>
	<rect x="138" y="46.2" class="st8" width="28.9" height="29.9"/>
	<polygon class="st7" points="204.2,76 185.5,76 185.5,41 200.3,41 	"/>
	<polygon class="st8" points="201.5,76 185.5,76 185.5,46 198.2,46 	"/>
	<polygon class="st12" points="202.6,44.9 202.6,67.4 205.5,67.4 205.5,77.1 206.7,77.1 206.7,67.4 206.7,65 206.7,44.9 	"/>
	<g>
		<g>
			<path class="st28" d="M13.6,42.4v4.4c0,2.5,1.9,4.6,4.2,4.6s4.2-2,4.2-4.5v-4.4L13.6,42.4L13.6,42.4z"/>
		</g>
		<g>
			<path class="st28" d="M22,42.4v4.4c0,2.5,1.9,4.5,4.2,4.5c2.3,0,4.2-2,4.2-4.5v-4.4H22z"/>
		</g>
		<g>
			<path class="st28" d="M30.5,42.4v4.4c0,2.5,1.9,4.5,4.2,4.5s4.2-2,4.2-4.5v-4.4H30.5z"/>
		</g>
		<g>
			<path class="st28" d="M38.8,42.4v4.4c0,2.5,1.9,4.5,4.2,4.5c2.3,0,4.2-2,4.2-4.5v-4.4H38.8z"/>
		</g>
		<g>
			<path class="st28" d="M47.3,42.4v4.4c0,2.5,1.9,4.5,4.2,4.5c2.3,0,4.2-2,4.2-4.5v-4.4H47.3z"/>
		</g>
		<g>
			<path class="st28" d="M55.7,42.4v4.4c0,2.5,1.9,4.5,4.2,4.5s4.2-2,4.2-4.5v-4.4H55.7z"/>
		</g>
		<g>
			<path class="st28" d="M64.1,42.4v4.4c0,2.5,1.9,4.5,4.2,4.5s4.2-2,4.2-4.5v-4.4H64.1z"/>
		</g>
		<g>
			<path class="st28" d="M81,42.4h-8.4v4.4c0,2.5,1.9,4.5,4.2,4.5c2.3,0,4.1-1.9,4.2-4.3c0,0,0-0.1,0-0.2L81,42.4L81,42.4z"/>
		</g>
		<g>
			<path class="st28" d="M81,42.4v4.4c0,0,0,0.1,0,0.2c0.1,2.4,1.9,4.3,4.2,4.3c2.3,0,4.2-2,4.2-4.5v-4.4L81,42.4L81,42.4z"/>
		</g>
		<g>
			<path class="st28" d="M81,42.4L81,42.4v4.4c0,0,0,0.1,0,0.2c0,0,0-0.1,0-0.2V42.4z"/>
		</g>
		<g>
			<path class="st28" d="M89.3,42.4v4.4c0,2.5,1.9,4.5,4.2,4.5s4.2-2,4.2-4.5v-4.4H89.3z"/>
		</g>
		<g>
			<path class="st28" d="M97.8,42.4v4.4c0,2.5,1.9,4.5,4.2,4.5c2.3,0,4.2-2,4.2-4.5v-4.4H97.8z"/>
		</g>
		<g>
			<path class="st28" d="M114.6,42.4v4.4l0,0c0,2.5,1.9,4.5,4.2,4.5c2.3,0,4.2-2,4.2-4.5v-4.4L114.6,42.4L114.6,42.4z"/>
		</g>
		<g>
			<path class="st28" d="M114.6,42.4h-8.4v4.4c0,2.5,1.9,4.5,4.2,4.5c2.3,0,4.2-2,4.2-4.5l0,0L114.6,42.4L114.6,42.4L114.6,42.4z"/>
		</g>
		<g>
			<polygon class="st28" points="114.6,42.4 114.6,42.4 114.6,46.9 114.6,46.9 114.6,46.9 			"/>
		</g>
	</g>
	<polygon class="st52" points="17.1,27.8 13.6,42.6 123.5,42.6 120.4,27.8 	"/>
</g>
</svg>
